# xmcd
#
# Track frame offsets:
#	150
#	20095
#	38400
#	55950
#	75450
#	93172
#	110687
#	131680
#	149282
#	168002
#	186865
#	201200
#	215877
#	235087
#	251260
#	269870
#	286107
#	304535
#	320942
#	337547
#
# Disc length: 4740 seconds
#
# Revision: 0
# Processed by: cddbd v1.5.2PL0 Copyright (c) Steve Scherf et al.
# Submitted via: EasyCDDAExtractor 15.3.0.1
#
DISCID=1c128214
DTITLE=Ednita Nazario - Solo Lo Mejor - 20 Exitos
DYEAR=2001
DGENRE=Latin
TTITLE0=Quiero Que Me Hagas El Amor
TTITLE1=Por Ti Me Casare
TTITLE2=Un Corazon Hecho Pedazos
TTITLE3=Tanto Nos Amamos
TTITLE4=Eres Libre
TTITLE5=Quien Te Robo El Corazon
TTITLE6=Lo Que Son Las Cosas
TTITLE7=Tres Deseos
TTITLE8=Despues De Tanto
TTITLE9=Te Sigo Esperando
TTITLE10=Mirame
TTITLE11=Viene Y Va
TTITLE12=Como Antes
TTITLE13=No Voy A Llorar
TTITLE14=Dime Tu
TTITLE15=Perdiendo Tu Amor
TTITLE16=Que No Acabe El Amor
TTITLE17=Corazon
TTITLE18=Lloviendo Flores
TTITLE19=Espiritu Libre
EXTD=
EXTT0=
EXTT1=
EXTT2=
EXTT3=
EXTT4=
EXTT5=
EXTT6=
EXTT7=
EXTT8=
EXTT9=
EXTT10=
EXTT11=
EXTT12=
EXTT13=
EXTT14=
EXTT15=
EXTT16=
EXTT17=
EXTT18=
EXTT19=
PLAYORDER=
